<?xml version="1.0" encoding="utf-8"?>
<svg viewBox="98.796 169.641 942.61 110.984" width="942.61px" height="110.984px" xmlns="http://www.w3.org/2000/svg">
  <g transform="matrix(0.727926, 0, 0, 0.727926, 30.519476, 68.926643)">
    <circle cx="170.029" cy="214.591" r="76.233" style="fill: rgb(0, 153, 0);"/>
  </g>
  <g transform="matrix(0.746803, 0, 0, 0.746803, 88.721504, 57.741238)">
    <path d="M 49.631 238.935 C 49.631 242.393 46.827 245.197 43.369 245.197 C 39.911 245.197 37.107 242.393 37.107 238.935 C 37.107 235.477 39.911 232.673 43.369 232.673 C 46.827 232.673 49.631 235.477 49.631 238.935 Z M 43.892 223.509 C 35.058 223.509 27.897 230.67 27.897 239.504 C 27.897 248.338 35.058 255.499 43.892 255.499 C 52.726 255.499 59.887 248.338 59.887 239.504 C 59.887 230.67 52.726 223.509 43.892 223.509 Z" style="fill: rgb(255, 255, 255);"/>
    <path style="fill: rgb(255, 255, 255); stroke: rgb(255, 255, 255);" d="M 25.763 195.611 L 62.378 228.053 L 120.192 206.107 L 125 195.611 L 25.763 195.611 Z"/>
    <path style="fill: rgb(255, 255, 255); stroke: rgb(255, 255, 255);" d="M 143.129 196.566 L 54.389 229.963 L 57.252 234.733 L 143.13 200.383 L 153.625 200.383 L 153.625 196.566 L 143.129 196.566 Z"/>
    <path style="fill: rgb(255, 255, 255); stroke: rgb(255, 255, 255);" d="M 106.869 213.741 C 105.24 226.294 106.884 229.084 105.915 242.367 C 104.882 256.522 89.367 255.789 83.968 246.184 C 78.806 237.001 73.473 228.054 73.473 228.054 L 77.783 226.576 C 78.939 229.695 83.049 236.039 86.353 241.917 C 91.752 251.522 100.588 253.21 101.621 239.055 C 102.427 228.004 101.131 226.198 100.833 218.674 L 106.869 213.741 Z M 76.813 223.788 C 76.813 223.788 77.133 224.823 77.783 226.576 L 100.833 216.766 C 100.772 215.246 76.813 223.788 76.813 223.788 Z"/>
    <path style="fill: rgb(255, 255, 255); stroke: rgb(255, 255, 255);" d="M 32.954 238.958 L 21.503 241.822 L 22.458 245.638 L 34.863 242.775 L 32.954 238.958 Z"/>
  </g>
  <path d="M 262.459 196.881 L 276.809 196.881 L 276.809 203.031 L 271.889 203.031 L 288.119 248.131 L 293.539 248.131 L 293.539 254.281 L 276.149 254.281 L 276.149 248.131 L 280.989 248.131 L 277.299 237.391 L 254.829 237.391 L 251.139 248.131 L 256.059 248.131 L 256.059 254.281 L 238.679 254.281 L 238.679 248.131 L 244.009 248.131 L 260.239 203.111 C 251.712 203.224 245.729 204.194 242.289 206.021 C 238.842 207.854 237.119 210.658 237.119 214.431 C 237.119 216.071 237.476 217.424 238.189 218.491 C 238.896 219.558 239.932 220.091 241.299 220.091 C 243.872 220.091 245.159 217.931 245.159 213.611 L 251.719 213.611 C 251.719 217.164 250.899 220.158 249.259 222.591 C 247.619 225.024 244.966 226.241 241.299 226.241 C 237.639 226.241 234.932 225.091 233.179 222.791 C 231.432 220.498 230.559 217.711 230.559 214.431 C 230.559 209.071 233.102 204.808 238.189 201.641 C 243.269 198.468 251.359 196.881 262.459 196.881 Z M 275.499 232.061 L 266.069 204.671 L 256.639 232.061 L 275.499 232.061 ZM 301.567 198.111 L 295.247 198.111 L 295.247 192.781 L 308.537 192.781 L 308.537 248.951 L 315.667 248.951 L 315.667 254.281 L 295.167 254.281 L 295.167 248.951 L 301.567 248.951 L 301.567 198.111 ZM 325.754 198.111 L 319.434 198.111 L 319.434 192.781 L 332.724 192.781 L 332.724 248.951 L 339.854 248.951 L 339.854 254.281 L 319.354 254.281 L 319.354 248.951 L 325.754 248.951 L 325.754 198.111 ZM 349.942 249.071 C 346.495 245.058 344.772 239.961 344.772 233.781 C 344.772 227.601 346.495 222.504 349.942 218.491 C 353.382 214.471 358.218 212.461 364.452 212.461 C 370.685 212.461 375.522 214.471 378.962 218.491 C 382.408 222.504 384.132 227.601 384.132 233.781 C 384.132 239.961 382.408 245.058 378.962 249.071 C 375.522 253.091 370.685 255.101 364.452 255.101 C 358.218 255.101 353.382 253.091 349.942 249.071 Z M 355.102 222.871 C 352.862 225.718 351.742 229.354 351.742 233.781 C 351.742 238.208 352.862 241.844 355.102 244.691 C 357.342 247.531 360.458 248.951 364.452 248.951 C 368.445 248.951 371.562 247.531 373.802 244.691 C 376.042 241.844 377.162 238.208 377.162 233.781 C 377.162 229.354 376.042 225.718 373.802 222.871 C 371.562 220.031 368.445 218.611 364.452 218.611 C 360.458 218.611 357.342 220.031 355.102 222.871 ZM 395.766 218.611 L 388.636 218.611 L 388.636 214.101 L 394.946 213.281 L 395.766 213.281 C 397.519 209.181 398.696 205.574 399.296 202.461 L 402.736 202.461 L 402.736 213.281 L 414.956 213.281 L 414.956 218.611 L 402.736 218.611 L 402.736 243.781 C 402.736 245.641 403.053 246.981 403.686 247.801 C 404.313 248.621 405.393 249.031 406.926 249.031 C 408.453 249.031 410.503 248.511 413.076 247.471 L 415.776 252.151 C 412.663 254.118 409.329 255.101 405.776 255.101 C 402.223 255.101 399.666 254.171 398.106 252.311 C 396.546 250.451 395.766 248.048 395.766 245.101 L 395.766 218.611 ZM 465.384 254.281 L 444.964 254.281 L 444.964 248.951 L 451.284 248.951 L 451.284 228.201 C 451.284 225.034 450.874 222.644 450.054 221.031 C 449.234 219.418 447.361 218.611 444.434 218.611 C 441.508 218.611 437.474 219.978 432.334 222.711 L 432.334 248.951 L 438.654 248.951 L 438.654 254.281 L 419.054 254.281 L 419.054 248.951 L 425.364 248.951 L 425.364 218.611 L 419.054 218.611 L 419.054 213.281 L 430.784 213.281 L 431.604 216.971 C 437.124 213.964 442.084 212.461 446.484 212.461 C 450.884 212.461 454.041 214.048 455.954 217.221 C 461.588 214.048 466.618 212.461 471.044 212.461 C 475.471 212.461 478.574 213.854 480.354 216.641 C 482.128 219.428 483.014 223.281 483.014 228.201 L 483.014 249.361 L 489.734 249.361 L 489.734 252.801 C 487.714 254.061 485.378 254.691 482.724 254.691 C 480.078 254.691 478.301 254.241 477.394 253.341 C 476.494 252.434 476.044 250.971 476.044 248.951 L 476.044 228.201 C 476.044 225.034 475.634 222.644 474.814 221.031 C 473.994 219.418 472.178 218.611 469.364 218.611 C 466.544 218.611 462.674 219.841 457.754 222.301 C 458.088 224.108 458.254 226.074 458.254 228.201 L 458.254 248.951 L 465.384 248.951 L 465.384 254.281 ZM 529.339 230.991 L 529.339 235.341 L 500.389 235.341 C 500.663 239.328 501.839 242.594 503.919 245.141 C 505.993 247.681 508.779 248.951 512.279 248.951 C 514.573 248.951 516.636 248.704 518.469 248.211 C 520.303 247.718 521.573 247.268 522.279 246.861 C 522.993 246.448 523.979 245.831 525.239 245.011 L 528.269 249.611 C 524.116 253.271 518.923 255.101 512.689 255.101 C 506.456 255.101 501.686 253.091 498.379 249.071 C 495.073 245.058 493.419 239.961 493.419 233.781 C 493.419 227.601 495.073 222.504 498.379 218.491 C 501.686 214.471 506.196 212.461 511.909 212.461 C 517.623 212.461 521.956 214.184 524.909 217.631 C 527.863 221.071 529.339 225.524 529.339 230.991 Z M 522.369 229.521 C 522.036 226.181 521.036 223.528 519.369 221.561 C 517.703 219.594 515.326 218.611 512.239 218.611 C 509.153 218.611 506.623 219.608 504.649 221.601 C 502.683 223.601 501.373 226.241 500.719 229.521 L 522.369 229.521 ZM 546.71 223.531 L 546.71 248.951 L 553.85 248.951 L 553.85 254.281 L 533.43 254.281 L 533.43 248.951 L 539.74 248.951 L 539.74 218.611 L 533.43 218.611 L 533.43 213.281 L 545.16 213.281 L 546.14 217.631 C 548 216.591 549.504 215.784 550.65 215.211 C 551.797 214.638 553.45 214.034 555.61 213.401 C 557.77 212.774 559.86 212.461 561.88 212.461 C 566.587 212.461 569.827 213.854 571.6 216.641 C 573.38 219.428 574.27 223.281 574.27 228.201 L 574.27 249.361 L 580.99 249.361 L 580.99 252.801 C 578.97 254.061 576.634 254.691 573.98 254.691 C 571.327 254.691 569.55 254.241 568.65 253.341 C 567.75 252.434 567.3 250.971 567.3 248.951 L 567.3 228.201 C 567.3 225.034 566.89 222.644 566.07 221.031 C 565.25 219.418 563.364 218.611 560.41 218.611 C 557.457 218.611 552.89 220.251 546.71 223.531 ZM 590.574 218.611 L 583.444 218.611 L 583.444 214.101 L 589.754 213.281 L 590.574 213.281 C 592.328 209.181 593.504 205.574 594.104 202.461 L 597.544 202.461 L 597.544 213.281 L 609.764 213.281 L 609.764 218.611 L 597.544 218.611 L 597.544 243.781 C 597.544 245.641 597.861 246.981 598.494 247.801 C 599.121 248.621 600.201 249.031 601.734 249.031 C 603.261 249.031 605.311 248.511 607.884 247.471 L 610.584 252.151 C 607.471 254.118 604.138 255.101 600.584 255.101 C 597.031 255.101 594.474 254.171 592.914 252.311 C 591.354 250.451 590.574 248.048 590.574 245.101 L 590.574 218.611 ZM 633.383 212.791 C 633.383 216.344 632.563 219.338 630.923 221.771 C 629.283 224.204 626.629 225.421 622.963 225.421 C 619.303 225.421 616.596 224.271 614.843 221.971 C 613.096 219.678 612.223 216.891 612.223 213.611 C 612.223 208.251 614.766 203.988 619.853 200.821 C 624.933 197.648 633.023 196.061 644.123 196.061 C 663.416 196.061 673.063 201.638 673.063 212.791 C 673.063 218.364 670.466 222.301 665.273 224.601 C 668.446 225.694 670.963 227.484 672.823 229.971 C 674.683 232.458 675.613 235.451 675.613 238.951 C 675.613 243.651 673.943 247.518 670.603 250.551 C 667.269 253.584 662.406 255.101 656.013 255.101 C 654.806 255.101 652.016 254.964 647.643 254.691 C 643.269 254.418 639.773 254.281 637.153 254.281 L 629.193 254.281 L 629.193 248.131 L 637.153 248.131 L 637.153 202.461 C 630.479 202.948 625.749 204.121 622.963 205.981 C 620.176 207.841 618.783 210.384 618.783 213.611 C 618.783 215.251 619.139 216.604 619.853 217.671 C 620.559 218.738 621.596 219.271 622.963 219.271 C 625.536 219.271 626.823 217.111 626.823 212.791 L 633.383 212.791 Z M 657.243 228.291 L 648.223 228.291 L 648.223 222.141 L 656.343 222.141 C 659.129 222.141 661.453 221.321 663.313 219.681 C 665.166 218.041 666.093 215.744 666.093 212.791 C 666.093 209.184 664.426 206.518 661.093 204.791 C 657.759 203.071 652.103 202.211 644.123 202.211 L 644.123 248.381 C 650.903 248.761 655.276 248.951 657.243 248.951 C 660.683 248.951 663.443 248.034 665.523 246.201 C 667.603 244.374 668.643 241.821 668.643 238.541 C 668.643 235.261 667.589 232.731 665.483 230.951 C 663.376 229.178 660.629 228.291 657.243 228.291 ZM 687.003 249.071 C 683.556 245.058 681.833 239.961 681.833 233.781 C 681.833 227.601 683.556 222.504 687.003 218.491 C 690.443 214.471 695.279 212.461 701.513 212.461 C 707.746 212.461 712.583 214.471 716.023 218.491 C 719.469 222.504 721.193 227.601 721.193 233.781 C 721.193 239.961 719.469 245.058 716.023 249.071 C 712.583 253.091 707.746 255.101 701.513 255.101 C 695.279 255.101 690.443 253.091 687.003 249.071 Z M 692.163 222.871 C 689.923 225.718 688.803 229.354 688.803 233.781 C 688.803 238.208 689.923 241.844 692.163 244.691 C 694.403 247.531 697.519 248.951 701.513 248.951 C 705.506 248.951 708.623 247.531 710.863 244.691 C 713.103 241.844 714.223 238.208 714.223 233.781 C 714.223 229.354 713.103 225.718 710.863 222.871 C 708.623 220.031 705.506 218.611 701.513 218.611 C 697.519 218.611 694.403 220.031 692.163 222.871 ZM 732.097 249.071 C 728.651 245.058 726.927 239.961 726.927 233.781 C 726.927 227.601 728.651 222.504 732.097 218.491 C 735.537 214.471 740.374 212.461 746.607 212.461 C 752.841 212.461 757.677 214.471 761.117 218.491 C 764.564 222.504 766.287 227.601 766.287 233.781 C 766.287 239.961 764.564 245.058 761.117 249.071 C 757.677 253.091 752.841 255.101 746.607 255.101 C 740.374 255.101 735.537 253.091 732.097 249.071 Z M 737.257 222.871 C 735.017 225.718 733.897 229.354 733.897 233.781 C 733.897 238.208 735.017 241.844 737.257 244.691 C 739.497 247.531 742.614 248.951 746.607 248.951 C 750.601 248.951 753.717 247.531 755.957 244.691 C 758.197 241.844 759.317 238.208 759.317 233.781 C 759.317 229.354 758.197 225.718 755.957 222.871 C 753.717 220.031 750.601 218.611 746.607 218.611 C 742.614 218.611 739.497 220.031 737.257 222.871 ZM 783.252 237.881 L 783.252 248.951 L 789.572 248.951 L 789.572 254.281 L 769.972 254.281 L 769.972 248.951 L 776.282 248.951 L 776.282 198.111 L 769.972 198.111 L 769.972 192.781 L 783.252 192.781 L 783.252 231.241 L 788.262 229.431 L 797.932 218.611 L 794.902 218.611 L 794.902 213.281 L 810.312 213.281 L 810.312 218.611 L 806.792 218.611 L 793.832 232.711 L 806.872 249.361 L 813.102 249.361 L 813.102 252.801 C 811.902 253.514 810.835 254.008 809.902 254.281 C 808.975 254.554 807.502 254.691 805.482 254.691 C 803.455 254.691 801.648 253.651 800.062 251.571 L 788.262 236.081 L 783.252 237.881 Z" style="fill: rgb(68, 68, 68); white-space: pre;"/>
  <path d="M 828.897 255.181 C 827.264 255.181 825.88 254.614 824.747 253.481 C 823.614 252.348 823.047 250.964 823.047 249.331 C 823.047 247.698 823.614 246.314 824.747 245.181 C 825.88 244.048 827.264 243.481 828.897 243.481 C 830.53 243.481 831.914 244.048 833.047 245.181 C 834.18 246.314 834.747 247.698 834.747 249.331 C 834.747 250.964 834.18 252.348 833.047 253.481 C 831.914 254.614 830.53 255.181 828.897 255.181 Z" style="fill: rgb(0, 153, 0); white-space: pre;"/>
  <path d="M 843.415 233.681 C 843.415 227.501 845.068 222.404 848.375 218.391 C 851.681 214.371 856.095 212.361 861.615 212.361 C 867.141 212.361 871.761 213.481 875.475 215.721 L 875.475 225.481 L 869.735 225.481 L 869.735 219.991 C 867.388 219.004 864.901 218.511 862.275 218.511 C 858.501 218.511 855.578 219.931 853.505 222.771 C 851.425 225.618 850.385 229.254 850.385 233.681 C 850.385 238.108 851.425 241.744 853.505 244.591 C 855.578 247.431 858.501 248.851 862.275 248.851 C 864.408 248.851 866.348 248.591 868.095 248.071 C 869.848 247.551 871.025 247.114 871.625 246.761 C 872.225 246.408 873.155 245.791 874.415 244.911 L 877.445 249.511 C 873.565 253.171 868.578 255.001 862.485 255.001 C 856.385 255.001 851.681 252.991 848.375 248.971 C 845.068 244.958 843.415 239.861 843.415 233.681 ZM 886.71 248.971 C 883.263 244.958 881.54 239.861 881.54 233.681 C 881.54 227.501 883.263 222.404 886.71 218.391 C 890.15 214.371 894.987 212.361 901.22 212.361 C 907.453 212.361 912.29 214.371 915.73 218.391 C 919.177 222.404 920.9 227.501 920.9 233.681 C 920.9 239.861 919.177 244.958 915.73 248.971 C 912.29 252.991 907.453 255.001 901.22 255.001 C 894.987 255.001 890.15 252.991 886.71 248.971 Z M 891.87 222.771 C 889.63 225.618 888.51 229.254 888.51 233.681 C 888.51 238.108 889.63 241.744 891.87 244.591 C 894.11 247.431 897.227 248.851 901.22 248.851 C 905.213 248.851 908.33 247.431 910.57 244.591 C 912.81 241.744 913.93 238.108 913.93 233.681 C 913.93 229.254 912.81 225.618 910.57 222.771 C 908.33 219.931 905.213 218.511 901.22 218.511 C 897.227 218.511 894.11 219.931 891.87 222.771 Z" style="fill: rgb(68, 68, 68); white-space: pre;"/>
  <path d="M 936.614 255.181 C 934.981 255.181 933.598 254.614 932.464 253.481 C 931.331 252.348 930.764 250.964 930.764 249.331 C 930.764 247.698 931.331 246.314 932.464 245.181 C 933.598 244.048 934.981 243.481 936.614 243.481 C 938.248 243.481 939.631 244.048 940.764 245.181 C 941.898 246.314 942.464 247.698 942.464 249.331 C 942.464 250.964 941.898 252.348 940.764 253.481 C 939.631 254.614 938.248 255.181 936.614 255.181 Z" style="fill: rgb(0, 153, 0); white-space: pre;"/>
  <path d="M 982.952 218.511 L 976.632 218.511 L 976.632 213.181 L 989.922 213.181 L 989.922 249.261 L 996.642 249.261 L 996.642 252.701 C 994.622 253.961 991.929 254.591 988.562 254.591 C 985.202 254.591 983.359 253.141 983.032 250.241 C 977.292 253.468 972.139 255.081 967.572 255.081 C 963.005 255.081 959.835 253.688 958.062 250.901 C 956.282 248.114 955.392 244.261 955.392 239.341 L 955.392 218.511 L 949.082 218.511 L 949.082 213.181 L 962.362 213.181 L 962.362 239.341 C 962.362 242.508 962.772 244.898 963.592 246.511 C 964.412 248.124 966.299 248.931 969.252 248.931 C 972.205 248.931 976.772 247.291 982.952 244.011 L 982.952 218.511 ZM 1011.556 237.781 L 1011.556 248.851 L 1017.876 248.851 L 1017.876 254.181 L 998.276 254.181 L 998.276 248.851 L 1004.586 248.851 L 1004.586 198.011 L 998.276 198.011 L 998.276 192.681 L 1011.556 192.681 L 1011.556 231.141 L 1016.566 229.331 L 1026.236 218.511 L 1023.206 218.511 L 1023.206 213.181 L 1038.616 213.181 L 1038.616 218.511 L 1035.096 218.511 L 1022.136 232.611 L 1035.176 249.261 L 1041.406 249.261 L 1041.406 252.701 C 1040.206 253.414 1039.139 253.908 1038.206 254.181 C 1037.279 254.454 1035.806 254.591 1033.786 254.591 C 1031.759 254.591 1029.953 253.551 1028.366 251.471 L 1016.566 235.981 L 1011.556 237.781 Z" style="fill: rgb(68, 68, 68); white-space: pre;"/>
</svg>