<?xml version="1.0" encoding="utf-8"?>
<svg viewBox="0 0 500 500" xmlns="http://www.w3.org/2000/svg">
  <rect width="500" height="500" style="stroke: rgb(0, 0, 0); fill: rgb(86, 6, 6);"/>
  <g transform="matrix(6.054898, 0, 0, 6.054898, 212.65305, 66.174985)">
    <g>
      <path d="M 35.928 -3.701 L 35.928 -1.701 C 35.928 2.165 32.794 5.299 28.928 5.299 L 27.928 5.299 L 27.928 6.299 L 32.928 6.299 L 32.928 13.299 C 32.928 14.404 32.033 15.299 30.928 15.299 L 22.928 15.299 C 21.823 15.299 20.928 14.404 20.928 13.299 L 20.928 6.299 L 25.928 6.299 L 25.928 3.299 C 25.928 -0.567 29.062 -3.701 32.928 -3.701 L 35.928 -3.701 Z M 20.428 -4.701 C 22.957 -4.701 25.193 -3.45 26.552 -1.532 C 25.532 -0.191 24.928 1.484 24.928 3.299 L 24.928 4.299 L 24.428 4.299 C 20.286 4.299 16.928 0.941 16.928 -3.201 L 16.928 -4.701 L 20.428 -4.701 Z" style="fill: rgb(0, 153, 0);"/>
    </g>
  </g>
  <ellipse style="fill: rgb(0, 153, 0);" cx="182.069" cy="296.051" rx="50.643" ry="50.643"/>
  <g transform="matrix(6.054898, 0, 0, 6.054898, 111.774681, 222.13446)">
    <path d="M10 6L8.59 7.41 13.17 12l-4.58 4.59L10 18l6-6z" style="fill: rgb(255, 255, 255);"/>
  </g>
  <g transform="matrix(5.490089, 0, 0, 5.490089, 306.168916, 243.775099)">
    <path d="M11.7501 2.00049C12.1298 2.00049 12.4436 2.28275 12.4932 2.64885L12.5 2.75062L12.499 6.09649L14.6715 4.18886C14.9827 3.91546 15.4566 3.94609 15.73 4.25726C16.0034 4.56843 15.9727 5.04232 15.6616 5.31571L12.499 8.09349L12.498 10.9995H15.407L18.1865 7.83873C18.4351 7.55593 18.8494 7.50506 19.1563 7.70363L19.2449 7.77071C19.5277 8.01935 19.5786 8.4336 19.38 8.74058L19.313 8.82918L17.405 10.9985L20.75 10.9993C21.1296 10.9993 21.4435 11.2814 21.4932 11.6475L21.5 11.7493C21.5 12.129 21.2179 12.4428 20.8518 12.4925L20.75 12.4993L17.402 12.4995L19.311 14.672C19.5595 14.9549 19.5568 15.3722 19.3204 15.6512L19.2426 15.7304C18.9597 15.979 18.5423 15.9763 18.2634 15.7399L18.1841 15.662L15.405 12.4995L12.497 12.4985L12.498 15.4065L15.6616 18.1863C15.9444 18.4348 15.9955 18.849 15.797 19.1561L15.73 19.2447C15.4814 19.5276 15.0672 19.5786 14.7601 19.3802L14.6715 19.3131L12.498 17.4035L12.4968 20.7506C12.4967 21.1303 12.2145 21.444 11.8484 21.4936L11.7467 21.5005C11.367 21.5005 11.0532 21.2182 11.0036 20.8521L10.9968 20.7504L10.996 17.4065L8.82869 19.313C8.51762 19.5865 8.04372 19.556 7.77022 19.2449C7.49671 18.9339 7.52717 18.46 7.83824 18.1865L10.997 15.4085V12.4995H8.312L5.31512 15.9117C5.04172 16.2228 4.56784 16.2535 4.25667 15.9801C3.94549 15.7067 3.91487 15.2328 4.18826 14.9216L6.316 12.4995L2.75005 12.5005C2.37035 12.5005 2.05652 12.2184 2.00685 11.8523L2 11.7505C2 11.3708 2.28211 11.057 2.64818 11.0073L2.74995 11.0005H5.874L4.18798 9.07827C3.91476 8.76695 3.94566 8.29308 4.25699 8.01986C4.56831 7.74664 5.04218 7.77754 5.3154 8.08887L7.87 10.9995H10.998V8.09149L7.83824 5.31335C7.55544 5.06471 7.50457 4.65046 7.70314 4.34348L7.77022 4.25488C8.01886 3.97208 8.43311 3.9212 8.74009 4.11978L8.82869 4.18685L10.999 6.09449L11 2.75035C11.0001 2.40518 11.2333 2.11455 11.5507 2.02727L11.6484 2.00733L11.7501 2.00049Z" style="fill: rgb(0, 153, 0); stroke-width: 7.10371px; stroke-miterlimit: 21;"/>
  </g>
  <g transform="matrix(13.440506, 0, 0, 13.440506, -18.224019, -8.130405)">
    <g>
      <path d="M 7.882 30.441 L 10.759 30.441 C 10.842 30.441 10.919 30.48 10.969 30.546 L 11.675 31.487 L 11.675 35.41 C 11.675 35.555 11.558 35.672 11.413 35.672 L 7.229 35.672 C 7.084 35.672 6.967 35.555 6.967 35.41 L 6.967 31.487 L 7.673 30.546 C 7.723 30.48 7.8 30.441 7.882 30.441 Z M 11.021 31.487 L 10.629 30.964 L 8.013 30.964 L 7.621 31.487 L 11.021 31.487 Z M 8.536 32.533 L 8.013 32.533 L 8.013 33.057 C 8.013 34.063 9.103 34.692 9.975 34.189 C 10.379 33.955 10.629 33.524 10.629 33.057 L 10.629 32.533 L 10.106 32.533 L 10.106 33.057 C 10.106 33.66 9.452 34.038 8.929 33.736 C 8.686 33.596 8.536 33.337 8.536 33.057 L 8.536 32.533 Z" style="fill: rgb(255, 255, 255);"/>
    </g>
  </g>
  <path d="M 219.47 47.035 L 219.47 114.784 L 287.22 114.784 C 284.12 146.048 257.738 170.469 225.657 170.469 C 191.486 170.469 163.786 142.769 163.786 108.597 C 163.786 76.517 188.206 50.134 219.47 47.035 Z M 231.845 37.711 C 266.202 40.662 293.587 68.052 296.544 102.41 L 231.845 102.41 L 231.845 37.711 Z" style="fill: rgb(255, 255, 255);"/>
  <g transform="matrix(1, 0, 0, 1, -386.26001, -92.656067)">
    <rect x="116.255" width="270.005" height="44.838" style="stroke: rgb(0, 153, 0); fill: rgb(0, 153, 0); stroke-width: 40px;" rx="4.528" ry="4.528" y="-30.838"/>
    <path style="fill: none; stroke: rgb(0, 153, 0); stroke-width: 70px;" d="M 149.894 107.233 L 353.05 106.62 C 355.752 119.899 354.172 119.064 363.361 125.865 C 376.395 128.397 386.26 140.246 386.26 154.488 L 386.26 446.581 C 386.26 462.666 373.678 475.702 358.154 475.702 L 144.361 475.702 C 128.837 475.702 116.255 462.666 116.255 446.581 L 116.255 154.488 C 116.255 141.788 124.099 130.988 135.042 127.006 C 143.723 121.425 143.195 121.815 149.894 107.233 Z"/>
  </g>
  <ellipse style="fill: rgb(0, 153, 0);" cx="-96.841" cy="-91.737" rx="50.643" ry="50.643" transform="matrix(-1, 0, 0, 1, 0, 0)"/>
  <g transform="matrix(-6.054898, 0, 0, 6.054898, 167.135315, -165.653275)">
    <path d="M10 6L8.59 7.41 13.17 12l-4.58 4.59L10 18l6-6z" style="fill: rgb(255, 255, 255);"/>
  </g>
</svg>