<?xml version="1.0" encoding="utf-8"?>
<svg viewBox="90.575 135.311 290.096 290.096" width="290.096" height="290.096" xmlns="http://www.w3.org/2000/svg">
  <path d="M 213.306 178.224 L 258.697 178.224 C 265.545 178.224 271.097 183.776 271.097 190.624 L 271.097 216.95 C 271.097 223.798 265.545 229.35 258.697 229.35 L 213.306 229.35 C 206.458 229.35 200.906 223.798 200.906 216.95 L 200.906 190.624 C 200.906 183.776 206.458 178.224 213.306 178.224 Z M 213.306 255.574 L 258.697 255.574 C 265.545 255.574 271.097 261.126 271.097 267.974 L 271.097 364.535 C 271.097 371.383 265.545 376.935 258.697 376.935 L 213.306 376.935 C 206.458 376.935 200.906 371.383 200.906 364.535 L 200.906 267.974 C 200.906 261.126 206.458 255.574 213.306 255.574 Z M 235.623 135.311 C 155.515 135.311 90.575 200.251 90.575 280.359 C 90.575 360.467 155.515 425.407 235.623 425.407 C 315.731 425.407 380.671 360.467 380.671 280.359 C 380.671 200.251 315.731 135.311 235.623 135.311 Z" style="fill: rgb(255, 255, 255);"/>
</svg>